<?xml version="1.0" encoding="UTF-8"?>
<svg width="140px" height="132px" viewBox="0 0 140 132" version="1.1" xmlns="http://www.w3.org/2000/svg" xmlns:xlink="http://www.w3.org/1999/xlink">
    <title>Punk</title>
    <defs>
        <circle id="path-1" cx="65" cy="65" r="65"></circle>
        <filter x="-3.5%" y="-1.2%" width="106.9%" height="102.3%" filterUnits="objectBoundingBox" id="filter-2">
            <feOffset dx="3" dy="0" in="SourceAlpha" result="shadowOffsetOuter1"></feOffset>
            <feColorMatrix values="0 0 0 0 1   0 0 0 0 0.0823529412   0 0 0 0 0.298039216  0 0 0 1 0" type="matrix" in="shadowOffsetOuter1" result="shadowMatrixOuter1"></feColorMatrix>
            <feOffset dx="-3" dy="0" in="SourceAlpha" result="shadowOffsetOuter2"></feOffset>
            <feColorMatrix values="0 0 0 0 0.0941176471   0 0 0 0 0.898039216   0 0 0 0 1  0 0 0 1 0" type="matrix" in="shadowOffsetOuter2" result="shadowMatrixOuter2"></feColorMatrix>
            <feMerge>
                <feMergeNode in="shadowMatrixOuter1"></feMergeNode>
                <feMergeNode in="shadowMatrixOuter2"></feMergeNode>
            </feMerge>
        </filter>
        <linearGradient x1="100%" y1="50%" x2="0%" y2="50%" id="linearGradient-3">
            <stop stop-color="#FF154C" offset="0%"></stop>
            <stop stop-color="#5629E5" offset="49.1723121%"></stop>
            <stop stop-color="#18E5FF" offset="100%"></stop>
        </linearGradient>
    </defs>
    <g id="Landing" stroke="none" stroke-width="1" fill="none" fill-rule="evenodd">
        <g id="punk_main_pc" transform="translate(-890.000000, -1530.000000)">
            <g id="02" transform="translate(602.000000, 1137.000000)">
                <g id="Group" transform="translate(43.000000, 234.000000)">
                    <g id="Punk" transform="translate(245.000000, 159.000000)">
                        <g id="Oval" transform="translate(5.000000, 1.000000)">
                            <use fill="black" fill-opacity="1" filter="url(#filter-2)" xlink:href="#path-1"></use>
                            <use fill="#FFFFFF" fill-rule="evenodd" xlink:href="#path-1"></use>
                        </g>
                        <g id="Symbol" transform="translate(38.000000, 46.000000)">
                            <rect id="Bounds" x="0" y="0" width="64" height="40"></rect>
                            <path d="M35.4429919,15.3541293 C35.7601313,15.6617563 36.2666046,15.6540451 36.5742317,15.3369057 C36.7190231,15.1876371 36.8,14.9878535 36.8,14.7798976 L36.8,3.376 C36.8,2.4923444 37.5163444,1.776 38.4,1.776 C38.8155535,1.776 39.2148051,1.93767554 39.5132723,2.22681564 L61.6699085,23.6910569 C62.1365706,24.1431358 62.4,24.7651037 62.4,25.4148335 L62.4,36.6218404 C62.4,37.505496 61.6836556,38.2218404 60.8,38.2218404 C60.3845702,38.2218404 59.9854273,38.0602607 59.6869843,37.7712733 L46.1565078,24.6694801 C45.8391007,24.3621293 45.3326343,24.3702816 45.0252835,24.6876888 C44.8807898,24.8369102 44.8,25.0364817 44.8,25.2441966 L44.8,36.6218404 C44.8,37.505496 44.0836556,38.2218404 43.2,38.2218404 C42.7845702,38.2218404 42.3854273,38.0602607 42.0869843,37.7712733 L28.5565078,24.6694801 C28.2391007,24.3621293 27.7326343,24.3702816 27.4252835,24.6876888 C27.2807898,24.8369102 27.2,25.0364817 27.2,25.2441966 L27.2,36.6206661 C27.2,37.5043217 26.4836556,38.2206661 25.6,38.2206661 C25.1844465,38.2206661 24.7851949,38.0589906 24.4867277,37.7698505 L2.68666994,16.6510446 C2.23537796,16.2138555 2.09519344,16.0452994 1.96149431,15.836489 C1.82779518,15.6276787 1.7374216,15.4143029 1.68047281,15.1729855 C1.62352401,14.9316682 1.6,14.7137015 1.6,14.0853714 L1.6,3.376 C1.6,2.4923444 2.3163444,1.776 3.2,1.776 C3.61555346,1.776 4.01480514,1.93767554 4.31327235,2.22681564 L17.8636505,15.3537445 C18.180989,15.6611661 18.6874572,15.653127 18.9948788,15.3357885 C19.1397063,15.1862892 19.2205641,14.9862297 19.220286,14.7780832 L19.2050624,3.38645513 C19.2038815,2.50280032 19.9192679,1.78549925 20.8029227,1.78431835 C21.2195741,1.78376154 21.6200088,1.94575559 21.9190771,2.23585355 L35.4429919,15.3541293 Z" id="Path" fill="url(#linearGradient-3)"></path>
                        </g>
                    </g>
                </g>
            </g>
        </g>
    </g>
</svg>