<?xml version="1.0" encoding="UTF-8"?>
<svg width="32px" height="32px" viewBox="0 0 32 32" version="1.1" xmlns="http://www.w3.org/2000/svg" xmlns:xlink="http://www.w3.org/1999/xlink">
    <title>Symbol_32x32_Token-1</title>
    <defs>
        <circle id="path-1" cx="16" cy="16" r="16"></circle>
        <linearGradient x1="100%" y1="50%" x2="0%" y2="50%" id="linearGradient-2">
            <stop stop-color="#FF154C" offset="0%"></stop>
            <stop stop-color="#5629E5" offset="49.1723121%"></stop>
            <stop stop-color="#18E5FF" offset="100%"></stop>
        </linearGradient>
    </defs>
    <g id="Symbol_32x32_Token-1" stroke="none" stroke-width="1" fill="none" fill-rule="evenodd">
        <g id="Symbol">
            <g id="Oval">
                <use fill="#FFFFFF" xlink:href="#path-1"></use>
                <use fill-opacity="0.06" fill="#5629E5" xlink:href="#path-1"></use>
            </g>
            <g transform="translate(5.000000, 9.500000)">
                <rect id="Bounds" x="0" y="0" width="22" height="14"></rect>
                <path d="M12.1835285,5.37394525 C12.2925451,5.48161472 12.4666453,5.47891577 12.5723921,5.36791698 C12.6221642,5.31567297 12.65,5.24574874 12.65,5.17296416 L12.65,1.1816 C12.65,0.87232054 12.8962434,0.6216 13.2,0.6216 C13.3428465,0.6216 13.4800893,0.678186438 13.5826874,0.779385475 L21.1990311,8.29186993 C21.3594461,8.45009754 21.45,8.66778628 21.45,8.89519171 L21.45,12.8176441 C21.45,13.1269236 21.2037566,13.3776441 20.9,13.3776441 C20.757196,13.3776441 20.6199906,13.3210913 20.5174009,13.2199457 L15.8662996,8.63431805 C15.7571909,8.52674527 15.5830931,8.52959857 15.4774412,8.64069106 C15.4277715,8.69291858 15.4,8.76276859 15.4,8.83546881 L15.4,12.8176441 C15.4,13.1269236 15.1537566,13.3776441 14.85,13.3776441 C14.707196,13.3776441 14.5699906,13.3210913 14.4674009,13.2199457 L9.81629957,8.63431805 C9.70719087,8.52674527 9.53309305,8.52959857 9.42744121,8.64069106 C9.3777715,8.69291858 9.35,8.76276859 9.35,8.83546881 L9.35,12.8172331 C9.35,13.1265126 9.10375661,13.3772331 8.8,13.3772331 C8.6571535,13.3772331 8.51991073,13.3206467 8.41731263,13.2194477 L0.923542793,5.8278656 C0.768411175,5.67484941 0.720222746,5.6158548 0.674263669,5.54277116 C0.628304593,5.46968753 0.597238676,5.395006 0.577662527,5.31054493 C0.558086379,5.22608386 0.55,5.14979553 0.55,4.92987998 L0.55,1.1816 C0.55,0.87232054 0.796243388,0.6216 1.1,0.6216 C1.2428465,0.6216 1.38008927,0.678186438 1.48268737,0.779385475 L6.14062986,5.37381057 C6.24971497,5.48140815 6.42381341,5.47859444 6.5294896,5.36752597 C6.57927404,5.31520121 6.60706892,5.24518038 6.6069733,5.17232912 L6.60174019,1.1852593 C6.60133426,0.875980112 6.84724835,0.624924737 7.15100469,0.624511422 C7.2942286,0.62431654 7.43187802,0.681014456 7.53468274,0.782548744 L12.1835285,5.37394525 Z" id="Path" fill="url(#linearGradient-2)"></path>
            </g>
        </g>
    </g>
</svg>