<?xml version="1.0" encoding="utf-8"?>
<!-- Generator: Adobe Illustrator 25.2.0, SVG Export Plug-In . SVG Version: 6.00 Build 0)  -->
<svg version="1.1" id="레이어_1" xmlns="http://www.w3.org/2000/svg" xmlns:xlink="http://www.w3.org/1999/xlink" x="0px"
	 y="0px" viewBox="0 0 850.4 850.4" style="enable-background:new 0 0 850.4 850.4;" xml:space="preserve">
<style type="text/css">
	.st0{fill:#231815;}
	.st1{fill:#FFFFFF;}
</style>
<rect y="0" class="st0" width="850.4" height="850.4"/>
<path class="st1" d="M630.4,555.5c27.2,36.5,55.2,73.9,83.3,111.3c-56.1,66.3-125.7,108.7-209.8,126.6
	c-93.5,19.5-181.8,5.1-267.6-42.5c76.5-56.9,151.2-113,226.8-169.1c17,16.1,33.1,32.3,49.3,47.6c17.8,17,11,17.8,34,5.1
	c31.4-17.8,57.8-42.5,78.2-72.2c0.8-1.7,2.5-3.4,3.4-5.1C627,557.2,627.8,557.2,630.4,555.5L630.4,555.5z M296.5,630.3
	c-21.2,16.1-40.8,30.6-60.3,45.9c-14.4,11-28.9,21.2-43.3,32.3c-5.9,5.1-10.2,5.1-17-0.8C111.3,649.8,70.5,578.4,55.2,493.5
	c-15.3-85.8-1.7-167.4,39.1-244.7c0.8-1.7,2.5-4.2,3.4-5.9c0-0.8,0.8-0.8,2.5-1.7c56.1,73.9,113,147.8,169.1,221.7
	c-1.7,2.5-2.5,4.2-4.2,5.9c-17,17.8-34,35.7-51.8,52.7c-5.1,5.1-5.9,9.3-2.5,15.3c17.8,34,42.5,62,73.1,85
	C288,624.3,291.4,626.9,296.5,630.3L296.5,630.3z M613.4,102.7c-27.2,19.5-54.4,39.1-81.6,57.8c-46.7,33.1-93.5,67.1-139.3,100.2
	c-5.9,4.2-10.2,5.1-15.3-0.8c-15.3-16.1-31.4-30.6-46.7-46.7c-4.2-4.2-8.5-5.1-14.4-2.5c-36.5,18.7-65.4,45-89.2,78.2
	c-1.7,1.7-3.4,4.2-5.1,6.8c-13.6-17.8-26.3-34-39.1-51c-13.6-17.8-26.3-35.7-39.1-52.7c-4.2-5.9-5.1-10.2,0.8-16.1
	c65.4-72.2,146.1-114.7,243-124.9c76.5-8.5,149.5,6.8,217.5,43.3c2.5,1.7,5.1,2.5,7.6,4.2C612.5,101,612.5,101.8,613.4,102.7z
	 M751.9,612.4c-17.8-22.9-34-44.2-50.1-65.4c-37.4-49.3-74.8-99.4-113-148.7c-5.1-6.8-5.1-11,0.8-17c16.1-16.1,31.4-32.3,47.6-48.4
	c4.2-4.2,5.9-8.5,2.5-14.4c-18.7-35.7-44.2-65.4-77.3-89.2c-2.5-1.7-5.1-4.2-8.5-5.9c2.5-2.5,5.1-4.2,6.8-5.9
	c32.3-24.6,64.6-48.4,96.8-73.1c5.1-4.2,9.3-5.9,15.3,0c80.7,73.1,124,164,128.3,273.6c1.7,63.7-12.7,124-41.6,181
	C757,602.2,754.4,606.5,751.9,612.4z"/>
</svg>
