<?xml version="1.0" encoding="utf-8"?>
<!-- Generator: Adobe Illustrator 25.2.0, SVG Export Plug-In . SVG Version: 6.00 Build 0)  -->
<svg version="1.1" id="레이어_1" xmlns="http://www.w3.org/2000/svg" xmlns:xlink="http://www.w3.org/1999/xlink" x="0px"
	 y="0px" viewBox="0 0 850.4 850.4" style="enable-background:new 0 0 850.4 850.4;" xml:space="preserve">
<style type="text/css">
	.st0{fill:#FFFFFF;}
	.st1{fill:#888FAD;}
	.st2{fill:#444872;}
	.st3{fill:#7F8080;}
	.st4{fill:#61658B;}
</style>
<rect y="0" class="st0" width="850.4" height="850.4"/>
<g id="Page-1">
	<g id="crypto" transform="translate(-227.000000, -93.000000)">
		<g id="Etherium" transform="translate(227.000000, 93.000000)">
			<g id="Group">
				<path id="Shape" class="st1" d="M426.4,72.1V332c0,1.1-1.1,2.3-2.3,2.3c-7.8,3.3-14.5,6.7-22.4,10c-10,4.5-21.2,8.9-31.3,14.5
					l-36.8,16.8L303.6,389l-36.8,16.8c-10,4.5-20.1,8.9-31.3,14.5c-7.8,3.3-16.8,7.8-24.5,11.2c-1.1,0-1.1,1.1-2.3,0h-1.1
					c3.3-5.6,6.7-10,10-15.6c17.8-30.1,36.8-60.2,54.7-90.4c18.9-32.4,39-64.7,58-97.1c17.8-30.1,35.7-60.2,53.5-89.2
					c13.4-22.4,26.8-43.5,39-65.8C425.3,73.3,425.3,72.1,426.4,72.1C425.3,72.1,426.4,72.1,426.4,72.1z"/>
				<path id="Shape_1_" class="st2" d="M642.8,431.3c-16.8,11.2-34.6,21.2-51.3,31.3c-54.5,32.3-108.2,63.6-162.8,96
					c-1.1,0-1.1,1.1-2.3,1.1c-1.1,0-1.1-1.1-1.1-1.1v-3.3V337.6v-3.3c0-1.1,1.1-1.1,2.3-1.1c4.5,2.3,8.9,4.5,14.5,6.7
					c13.4,6.7,27.8,12.3,41.3,18.9c12.3,5.6,23.4,11.2,35.7,15.6c12.3,5.6,23.4,11.2,35.7,16.8c10,4.5,21.2,8.9,31.3,14.5
					c10,4.5,21.2,8.9,31.3,14.5c7.8,3.3,15.6,7.8,24.5,11.2C641.7,430.2,641.7,431.3,642.8,431.3z"/>
				<path id="Shape_2_" class="st1" d="M426.4,778.3C426.4,778.3,425.3,778.3,426.4,778.3c-1.1,0-1.1,0-2.3-1.1
					c-22.4-31.3-43.5-61.4-65.8-92.5l-67-93.7c-21.2-30.1-43.5-60.2-64.7-91.5L209.9,476c0-1.1-1.1-1.1-1.1-2.3
					c1.1,0,1.1,1.1,2.3,1.1c30.1,17.8,61.4,35.7,91.5,53.5c34.6,21.2,70.3,41.3,104.9,62.4c5.6,3.3,12.3,6.7,17.8,10
					c1.1,0,1.1,1.1,1.1,2.3v175.1H426.4z"/>
				<path id="Shape_3_" class="st3" d="M208.9,431.3C208.9,431.3,210,431.3,208.9,431.3C210,431.3,210,431.3,208.9,431.3
					C208.9,432.4,208.9,432.4,208.9,431.3z"/>
				<path id="Shape_4_" class="st4" d="M210,432.4C210,431.3,210,431.3,210,432.4c11.2-5.6,22.4-10,33.4-15.6l43.5-20.1
					c11.2-5.6,22.4-10,33.4-15.6c15.6-7.8,32.4-14.5,47.9-22.4c11.2-4.5,22.4-10,33.4-14.5c7.8-3.3,15.6-6.7,23.4-11.2
					c1.1,0,1.1-1.1,2.3-1.1v227.6c-1.1,1.1-1.1,0-2.3,0c-3.3-2.3-6.7-3.3-8.9-5.6L212.3,433.6C211.1,432.4,210,432.4,210,432.4z"/>
				<path id="Shape_5_" class="st4" d="M641.7,473.7c0,1.1,0,1.1-1.1,2.3c-64.7,91.5-129.4,181.8-194.1,273.3
					c-6.7,10-13.4,18.9-20.1,29v-1.1v-2.3V604.3V601c14.5-8.9,29-17.8,43.5-25.7l170.7-100.4C640.6,473.7,641.7,473.7,641.7,473.7z"
					/>
				<path id="Shape_6_" class="st4" d="M426.4,333.2v-2.3V75.6v-2.3L640.6,428c1.1,1.1,2.3,2.3,2.3,3.3c-4.5-2.3-8.9-4.5-14.5-6.7
					c-5.6-2.3-11.2-5.6-16.8-7.8c-3.3-1.1-6.7-3.3-11.2-4.5c-5.6-2.3-12.3-5.6-17.8-7.8c-3.3-1.1-6.7-3.3-10-4.5l-23.4-10
					c-4.5-2.3-7.8-3.3-12.3-5.6c-5.6-2.3-11.2-5.6-16.8-7.8c-3.3-1.1-6.7-3.3-10-4.5l-23.4-10c-4.5-2.3-7.8-3.3-12.3-5.6
					c-5.6-2.3-11.2-5.6-16.8-7.8c-3.3-2.3-7.8-3.3-11.2-5.6C446.5,343.2,426.4,333.2,426.4,333.2z"/>
			</g>
		</g>
	</g>
</g>
</svg>
