<?xml version="1.0" encoding="UTF-8"?><svg xmlns="http://www.w3.org/2000/svg" xmlns:xlink="http://www.w3.org/1999/xlink" width="64px" height="65px" viewBox="0 0 64 65" version="1.1"><title>Tether Wallet</title><g id="Page-1" stroke="none" stroke-width="1" fill="none" fill-rule="evenodd"><g id="crypto" transform="translate(-505.000000, -325.000000)" fill-rule="nonzero"><g id="Tether-Wallet" transform="translate(505.000000, 325.000000)"><circle id="Oval" fill="#00A478" cx="32.2" cy="32.4" r="31.7"/><path id="Shape" fill="#FFF" d="M28.6 29.4v-8.1H17.9v-7.1h29.9v7.2H37.1v8z"/><path d="M32.6 26.2c11.2 0 17 3.1 17.7 4.1-.7 1-6.4 2.5-17.7 2.5-11.2 0-17-1.5-17.7-2.5.7-1.1 6.5-4.1 17.7-4.1zm0-.8c-10.7 0-19.3 2.2-19.3 4.9s8.6 4.9 19.3 4.9c10.7 0 19.3-2.2 19.3-4.9s-8.6-4.9-19.3-4.9z" id="Shape" fill="#FFF"/><g id="Group" transform="translate(28.000000, 26.000000)" fill="#FFF"><path d="M9.1 5.9V.3C7.7.2 6.2.1 4.7.1 3.3.1 2 .1.7.2v5.6c1.2 0 2.6.1 4 .1 1.5.1 3 .1 4.4 0z" id="Shape"/><path d="M4.6 9.2c-1.4 0-2.7 0-4-.1V24H9V9c-1.4.1-2.9.2-4.4.2z" id="Shape"/></g></g></g></g><metadata><rdf:RDF xmlns:rdf="http://www.w3.org/1999/02/22-rdf-syntax-ns#" xmlns:rdfs="http://www.w3.org/2000/01/rdf-schema#" xmlns:dc="http://purl.org/dc/elements/1.1/"><rdf:Description about="https://iconscout.com/legal#licenses" dc:title="tether,wallet" dc:description="tether,wallet" dc:publisher="Iconscout" dc:date="2017-09-17" dc:format="image/svg+xml" dc:language="en"><dc:creator><rdf:Bag><rdf:li>Vladislav Sergeev</rdf:li></rdf:Bag></dc:creator></rdf:Description></rdf:RDF></metadata></svg>