<?xml version="1.0" encoding="utf-8"?>
<!-- Generator: Adobe Illustrator 25.2.0, SVG Export Plug-In . SVG Version: 6.00 Build 0)  -->
<svg version="1.1" id="레이어_1" xmlns="http://www.w3.org/2000/svg" xmlns:xlink="http://www.w3.org/1999/xlink" x="0px"
	 y="0px" viewBox="0 0 850.4 850.4" style="enable-background:new 0 0 850.4 850.4;" xml:space="preserve">
<style type="text/css">
	.st0{fill:#FFFFFF;}
	.st1{fill:#49B894;}
</style>
<rect class="st0" width="850.4" height="850.4"/>
<g>
	<path class="st1" d="M387.2,425.2l271.2,155.3c6.8,4.1,15.6,1.9,19.6-4.9c1.4-2.3,2.1-4.8,2-7.5V282c0.1-7.8-6.2-14.3-14-14.4
		c-2.7,0-5.4,0.7-7.7,2.1L387.2,425.2z"/>
	<path class="st1" d="M652.7,201L467.3,64.7c-6.5-5-15.7-3.7-20.7,2.7c-1.2,1.5-2,3.2-2.5,5.1l-67.7,303.7L651,224.3
		c6.7-3.5,9.4-11.7,5.9-18.4C655.9,204,654.5,202.3,652.7,201"/>
	<path class="st1" d="M467.1,785.7l185.6-136.3c6.3-4.4,7.8-13.1,3.4-19.3c-1.3-1.8-2.9-3.3-4.9-4.3L376.4,473.8l67.7,303.7
		c1.9,7.9,9.8,12.7,17.6,10.9c1.9-0.5,3.8-1.3,5.4-2.5"/>
	<path class="st1" d="M316.7,419.6l70.5-329.7c1.5-7.6-3.4-14.9-11-16.4c-3.7-0.7-7.6,0.1-10.7,2.2L184.9,214.1
		c-9.3,7.1-14.7,18.1-14.6,29.8v351.4c-0.2,11.8,5.3,23.1,14.6,30.3l179.7,138.1c6.4,4.4,15.1,2.8,19.5-3.5c2.2-3.1,3-7,2.2-10.7
		L316.7,419.6z"/>
</g>
</svg>
