<?xml version="1.0" encoding="UTF-8"?><svg xmlns="http://www.w3.org/2000/svg" xmlns:xlink="http://www.w3.org/1999/xlink" width="64px" height="65px" viewBox="0 0 64 65" version="1.1"><title>Dash</title><g id="Page-1" stroke="none" stroke-width="1" fill="none" fill-rule="evenodd"><g id="crypto" transform="translate(-354.000000, -93.000000)" fill-rule="nonzero" fill="#3A74BE"><g id="Dash" transform="translate(354.000000, 93.000000)"><path d="M31.7.8C14.2.8 0 15 0 32.5s14.2 31.7 31.7 31.7S63.4 50 63.4 32.5 49.2.8 31.7.8zm-19 34.3v-.2c.3-.8.6-1.6.9-2.5.3-.8.5-1.6.8-2.4.1-.2.2-.3.4-.3h13.5c0 .1-.1.3-.1.4l-1.5 4.5c-.1.3-.2.4-.6.4h-13c-.1.1-.3.1-.4.1zm38-9.2c-1.3 4-2.6 8-3.9 12.1-.8 2.5-4.2 5.8-7.9 5.7-8.3-.1-16.6 0-24.8 0h-.5c.1-.3.2-.6.3-.8.5-1.4 1-2.9 1.4-4.3.1-.4.3-.4.6-.4h22.4c.3 0 .5-.1.6-.4 1.1-3.5 2.3-7 3.4-10.5 0-.1.1-.2.1-.4H19.1c0-.2.1-.3.1-.4.5-1.6 1.1-3.2 1.6-4.8.1-.3.2-.4.5-.4h25.2c.5 0 1.1.1 1.6.2 1.4.5 2.2 1.5 2.5 2.9 0 .1.1.2.1.3v1.2z" id="Shape"/></g></g></g><metadata><rdf:RDF xmlns:rdf="http://www.w3.org/1999/02/22-rdf-syntax-ns#" xmlns:rdfs="http://www.w3.org/2000/01/rdf-schema#" xmlns:dc="http://purl.org/dc/elements/1.1/"><rdf:Description about="https://iconscout.com/legal#licenses" dc:title="dash" dc:description="dash" dc:publisher="Iconscout" dc:date="2017-09-17" dc:format="image/svg+xml" dc:language="en"><dc:creator><rdf:Bag><rdf:li>Vladislav Sergeev</rdf:li></rdf:Bag></dc:creator></rdf:Description></rdf:RDF></metadata></svg>