<?xml version="1.0" encoding="utf-8"?>
<!-- Generator: Adobe Illustrator 25.2.0, SVG Export Plug-In . SVG Version: 6.00 Build 0)  -->
<svg version="1.1" id="레이어_1" xmlns="http://www.w3.org/2000/svg" xmlns:xlink="http://www.w3.org/1999/xlink" x="0px"
	 y="0px" viewBox="0 0 183 183" style="enable-background:new 0 0 183 183;" xml:space="preserve">
<style type="text/css">
	.st0{fill:url(#SVGID_1_);}
	.st1{fill:#FFFFFF;}
	.st2{fill:url(#SVGID_2_);}
	.st3{fill:url(#SVGID_3_);}
	.st4{fill:none;stroke:#2D2D3D;stroke-width:2;}
</style>
<linearGradient id="SVGID_1_" gradientUnits="userSpaceOnUse" x1="120.9395" y1="215.2826" x2="76.4395" y2="30.2826" gradientTransform="matrix(1 0 0 -1 0 184.3937)">
	<stop  offset="0" style="stop-color:#2C2C3D"/>
	<stop  offset="1" style="stop-color:#1A1A27"/>
</linearGradient>
<path class="st0" d="M38,1h107c20.4,0,37,16.6,37,37v107c0,20.4-16.6,37-37,37H38c-20.4,0-37-16.6-37-37V38C1,17.6,17.6,1,38,1z"/>
<path class="st1" d="M115.3,43L45,142h21.6l70.7-99H115.3z"/>
<linearGradient id="SVGID_2_" gradientUnits="userSpaceOnUse" x1="61.8353" y1="133.5336" x2="90.8403" y2="97.9006" gradientTransform="matrix(1 0 0 -1 0 184.3937)">
	<stop  offset="0" style="stop-color:#FFFFFF"/>
	<stop  offset="1" style="stop-color:#FFFFFF;stop-opacity:0.55"/>
</linearGradient>
<path class="st2" d="M68.8,43l20.7,29.2L78.7,88.1L46.8,43H68.8z"/>
<linearGradient id="SVGID_3_" gradientUnits="userSpaceOnUse" x1="122.9471" y1="50.3354" x2="87.3754" y2="99.1361" gradientTransform="matrix(1 0 0 -1 0 184.3937)">
	<stop  offset="0" style="stop-color:#6966FF"/>
	<stop  offset="1" style="stop-color:#6966FF;stop-opacity:0.36"/>
</linearGradient>
<path class="st3" d="M117.4,142l-22.9-32.3l10.8-15.5L139,142H117.4z"/>
<path class="st4" d="M38,1h107c20.4,0,37,16.6,37,37v107c0,20.4-16.6,37-37,37H38c-20.4,0-37-16.6-37-37V38C1,17.6,17.6,1,38,1z"/>
</svg>
