<?xml version="1.0" encoding="utf-8"?>
<!-- Generator: Adobe Illustrator 25.2.0, SVG Export Plug-In . SVG Version: 6.00 Build 0)  -->
<svg version="1.1" id="레이어_1" xmlns="http://www.w3.org/2000/svg" xmlns:xlink="http://www.w3.org/1999/xlink" x="0px"
	 y="0px" viewBox="0 0 850.4 850.4" style="enable-background:new 0 0 850.4 850.4;" xml:space="preserve">
<style type="text/css">
	.st0{clip-path:url(#SVGID_2_);fill:url(#SVGID_3_);}
	.st1{fill:#E62274;}
</style>
<g>
	<defs>
		<circle id="SVGID_1_" cx="425.2" cy="425.2" r="425.2"/>
	</defs>
	<clipPath id="SVGID_2_">
		<use xlink:href="#SVGID_1_"  style="overflow:visible;"/>
	</clipPath>
	
		<radialGradient id="SVGID_3_" cx="6.2853" cy="-5.9811" r="6.125" gradientTransform="matrix(1.393697e-14 161.4925 -196.5717 8.540174e-15 28.2895 -25.8856)" gradientUnits="userSpaceOnUse">
		<stop  offset="0" style="stop-color:#EA619B"/>
		<stop  offset="1" style="stop-color:#F7F9FB"/>
	</radialGradient>
	<rect y="0" class="st0" width="2408" height="1978.3"/>
</g>
<g>
	<path class="st1" d="M439.9,409.5c13.3,23.5-16.5,30.8-30.4,32.2c-21.2,2.1-25.6-10.2-21.4-25.6c1.4-5.5,4.4-10.5,8.6-14.2
		c4.3-3.7,9.6-6.1,15.2-6.7c5.5-0.5,11.1,0.6,16.1,3.1C432.9,400.8,437,404.7,439.9,409.5L439.9,409.5z"/>
	<path class="st1" d="M523,365.9c-15.5,118.9,193.2,94.2,189.2,188.8c20.6-26.9,29.4-99.9-31.2-137.5
		C627.1,383.7,556.7,402.1,523,365.9z"/>
	<path class="st1" d="M691.7,407.8l-0.1-0.2c-1.9-3.5-4-6.9-6.4-10.1c-7-9.6-17.1-16.4-28.6-19.4c-7.6-2-15.4-3.2-23.3-3.7
		c-8-0.6-16.1-0.9-24.3-1.3c-16.5-0.9-33.3-2.6-49.8-7.3c-4.1-1.2-8.2-2.5-12.2-4c-2.1-0.7-4-1.6-6-2.4c-2-0.9-4.1-1.9-6.2-2.9
		c-7.7-4.3-14.9-9.5-21.3-15.6c-12.7-11.8-22.6-25.3-32.6-38.3c-9.4-13.1-19.5-25.6-30.3-37.6c-10.6-11.7-23.1-21.6-37-29.1
		c-14.4-7.3-30.1-11.8-46.1-13.2c16.7-1.8,33.5,0.2,49.3,6c15.9,6.2,30.4,15.5,42.7,27.3c8.1,7.6,15.6,15.7,22.6,24.2
		c52.3-10.3,94.7-1.2,127.2,16.7l0.7,0.4c10.4,5.6,20.1,12.4,29,20.2c1.4,1.2,2.8,2.5,4.1,3.7c6.9,6.4,13.4,13.3,19.3,20.7l0.5,0.6
		C682.2,366.9,691.7,392.3,691.7,407.8z"/>
	<path class="st1" d="M370.1,237.9c13.3,1.9,26.9,7.3,35.7,17.4c8.8,10.2,12,23.4,14.5,36c2.1,9.8,3.7,19.7,7.5,28.9
		c1.9,4.5,4.6,8.5,6.8,12.7c1.9,3.5,5.3,6.7,6.6,10.5c0.2,0.5,0.3,1.1,0.3,1.7c-0.1,0.6-0.3,1.1-0.6,1.6c-4.7,5.2-17.2-0.6-21.9-2.9
		c-8.2-4.1-15.5-9.7-21.6-16.5c-19-21.2-28.8-51.7-28.2-79.4C369.3,244.6,369.6,241.2,370.1,237.9z"/>
	<path class="st1" d="M420.3,582.4c7.9-5.9,16.4-10.8,25.5-14.6c9.2-3.7,18.8-6.5,28.5-8.3c19.4-3.7,38.5-4.6,54.6-11.1
		c8-3.1,15.3-7.7,21.6-13.4c6.1-5.7,10.8-12.8,13.7-20.7c2.9-8.3,4.1-17.1,3.5-25.9c-0.7-9.5-2.9-18.7-6.3-27.6
		c7.2,7.5,12.4,16.7,15.2,26.7s3.1,20.6,0.9,30.7c-2.5,10.8-8,20.6-15.7,28.4c-7.7,7.6-16.9,13.4-27.1,17
		c-9.7,3.4-19.8,5.5-30.1,6.2c-9.9,0.8-19.4,1.1-28.8,1.6C456.8,572.2,438.1,575.9,420.3,582.4L420.3,582.4z"/>
	<path class="st1" d="M604.6,724.4c-2.9,2.3-5.8,4.8-9,6.9c-3.2,2.1-6.6,4-10.1,5.6c-7.3,3.6-15.3,5.4-23.3,5.3
		c-21.9-0.4-37.4-16.8-46.4-35.3c-6.2-12.6-10.4-26.2-17.8-38.2c-10.5-17.2-28.4-31-49.4-28.4c-8.6,1.1-16.6,4.9-21.3,12.4
		c-12.5,19.5,5.5,46.8,28.4,42.9c1.9-0.3,3.9-0.8,5.7-1.6c1.8-0.8,3.5-1.8,5-3.1c3.2-2.7,5.6-6.2,7-10.1c1.5-4.1,1.8-8.6,1-12.9
		c-0.9-4.5-3.6-8.4-7.4-11c4.4,2.1,7.8,5.8,9.6,10.3c1.8,4.7,2.3,9.8,1.3,14.7c-0.9,5.1-3.2,10-6.5,13.9c-1.8,2-3.9,3.8-6.2,5.3
		c-2.3,1.4-4.7,2.6-7.3,3.5c-5.2,1.8-10.7,2.3-16.1,1.7c-7.6-1.1-14.8-4.2-20.8-9.1c-7.1-5.6-12.3-13-18.7-19.3
		c-7.3-7.7-16-14.1-25.6-18.7c-6.6-2.9-13.5-5.1-20.6-6.4c-3.6-0.7-7.2-1.3-10.8-1.7c-1.6-0.2-9.7-2-10.8-0.9
		c11.1-10.3,23.3-19.4,36.2-27.3c13.3-7.9,27.6-14.1,42.5-18.3c15.4-4.4,31.6-5.6,47.5-3.7c8.2,1,16.2,3.1,23.9,6.2
		c8,3.2,15.4,7.8,21.9,13.6c6.4,6,11.5,13.3,15.2,21.3c3.3,7.5,5.8,15.3,7.3,23.4c4.7,24,3,61.3,34.3,66.8c1.6,0.3,3.3,0.6,4.9,0.7
		l5.1,0.1c3.5-0.3,7-0.8,10.5-1.5C590.9,729.9,597.9,727.5,604.6,724.4L604.6,724.4z"/>
	<path class="st1" d="M422.5,698.3l-0.8-0.6L422.5,698.3z"/>
	<path class="st1" d="M394.4,358.9c-1.1,4.4-3.1,8.5-5.9,12.2c-5.1,6.6-11.8,11.8-19.5,15c-6.9,3-14.3,4.9-21.8,5.7
		c-1.6,0.2-3.3,0.3-4.9,0.5c-4.7,0.2-9.3,1.9-13,4.9s-6.4,7.1-7.6,11.7c-0.6,2.3-1,4.6-1.3,7c-0.7,6.1-0.9,12.4-1.5,20.1
		c-1.6,13-5.4,25.7-11.1,37.5c-7.5,15.8-15.8,28.4-13.9,46.6c1.3,11.8,7.3,19.7,15.3,27.8c14.4,14.8,46.7,21.4,39.5,57.9
		c-4.3,21.8-40.3,44.6-90.8,52.6c5-0.8-6.4-20.2-7.2-21.4c-5.4-8.5-11.3-16.5-15.6-25.8c-8.4-17.9-12.3-38.7-8.9-58.3
		c3.6-20.7,18.9-36.5,31.5-52.3c15.1-18.8,30.9-43.4,34.4-67.8c0.8-5.9,1.4-13.3,2.7-20.7c1.3-8.2,3.8-16.1,7.5-23.4
		c2.5-4.8,5.9-9.2,9.9-12.8c2.1-2,3.5-4.6,3.9-7.4s-0.1-5.7-1.5-8.2l-80.5-145.5l115.6,143.3c1.3,1.7,3,3,4.9,4
		c1.9,0.9,4,1.5,6.1,1.5s4.2-0.4,6.1-1.2s3.7-2.1,5-3.7c1.5-1.7,2.3-3.9,2.4-6.1c0.1-2.3-0.7-4.5-2-6.3
		c-7.6-9.7-15.5-19.6-23.3-29.3l-29.1-36.2l-58.4-72.2l-79.6-100.4l87.1,93.9l62.2,69l31,34.6c10.3,11.6,20.6,22.9,30.9,35.1
		l1.7,2.1l0.4,3.2C395.6,350.2,395.4,354.6,394.4,358.9z"/>
	<path class="st1" d="M421,697.2c-5.6-4.3-10.6-9.4-14.8-15.1C410.8,687.5,415.7,692.6,421,697.2L421,697.2z"/>
</g>
</svg>
